<svg width="24" height="24" viewBox="0 0 24 24" fill="none" xmlns="http://www.w3.org/2000/svg">
<path d="M22.5005 5.68701C21.684 6.85594 20.6653 7.86965 19.4924 8.68041L19.4924 8.6804C19.4182 10.7308 18.8197 12.7279 17.754 14.4812C16.6883 16.2345 15.191 17.6853 13.4051 18.6952C11.6191 19.7051 9.60406 20.2404 7.55235 20.25C5.50064 20.2595 3.48072 19.743 1.68542 18.7498L1.68603 18.7487C4.03039 18.7162 6.31331 17.9943 8.25011 16.673L8.25004 16.6731C6.17677 15.26 4.5977 13.2335 3.73421 10.8778C2.87072 8.52201 2.76611 5.95508 3.43505 3.53687L3.43501 3.53689C4.39311 5.01238 5.66394 6.25913 7.15749 7.18882C8.65104 8.11852 10.3308 8.7084 12.0777 8.91668L12.0774 8.91674C11.8934 8.03981 12.0295 7.12599 12.4609 6.34067C12.8923 5.55535 13.5906 4.95042 14.4294 4.63535C15.2682 4.32028 16.1921 4.31589 17.0338 4.62297C17.8756 4.93006 18.5796 5.52833 19.0185 6.30952L19.0185 6.30993C20.2035 6.27457 21.3768 6.06467 22.5005 5.68701" stroke="white" stroke-width="2" stroke-linecap="round" stroke-linejoin="round"/>
</svg>
